# xmcd
#
# Track frame offsets: 
#        150
#        8227
#        21685
#        34077
#        51630
#        70220
#        86382
#        98930
#        113362
#        129722
#        144387
#        154270
#        162820
#        175727
#        190895
#        203852
#        216780
#        228685
#        242507
#        254917
#        271115
#        281435
#        295207
#        312522
#
# Disc length: 4437 seconds
#
# Revision: 3
# Processed by: cddbd v1.5PL3 Copyright (c) Steve Scherf et al.
# Submitted via: ExactAudioCopy v0.90b4
#
DISCID=66115318
DTITLE=Elvis Presley - The Country Side Of Elvis [CD2]
DYEAR=2001
DGENRE=Country
TTITLE0=Little Cabin On The Hill
TTITLE1=There Goes My Everything
TTITLE2=I Really Dont Want To Know
TTITLE3=Tomorrow Never Comes
TTITLE4=Faded Love
TTITLE5=Make The World Go Away
TTITLE6=Help Me Make It Through The Night
TTITLE7=For The Good Times
TTITLE8=Always On My Mind
TTITLE9=You Gave Me A Moutain
TTITLE10=Im So Lonesome I Could Cry
TTITLE11=Welcome To My World
TTITLE12=Take Good Care Of Her
TTITLE13=Its Midnight
TTITLE14=You Asked Me To
TTITLE15=Loving Arms
TTITLE16=Talk About The Good Times
TTITLE17=Theres A Honkey Tonk Angel
TTITLE18=Fairytale
TTITLE19=Green, Green Grass Of Home
TTITLE20=Susan When She Tried
TTITLE21=T-R-O-U-B-L-E
TTITLE22=She Still Thinks I Care
TTITLE23=He Will Have To Go
EXTD=
EXTT0=
EXTT1=
EXTT2=
EXTT3=
EXTT4=
EXTT5=
EXTT6=
EXTT7=
EXTT8=
EXTT9=
EXTT10=
EXTT11=
EXTT12=
EXTT13=
EXTT14=
EXTT15=
EXTT16=
EXTT17=
EXTT18=
EXTT19=
EXTT20=
EXTT21=
EXTT22=
EXTT23=
PLAYORDER=
